<svg xmlns="http://www.w3.org/2000/svg" viewBox="0 0 1200 440" width="1200" height="440">
<defs>
<linearGradient id="sky" x1="0" y1="0" x2="0" y2="1"><stop offset="0" stop-color="#050b22"/><stop offset=".34" stop-color="#14295a"/><stop offset=".6" stop-color="#3f6cab"/><stop offset=".78" stop-color="#c3d8ef"/><stop offset="1" stop-color="#fbe7ae"/></linearGradient>
<radialGradient id="halo" cx=".5" cy=".5" r=".5"><stop offset="0" stop-color="#FFFBE6" stop-opacity=".95"/><stop offset=".3" stop-color="#FFE9A8" stop-opacity=".5"/><stop offset="1" stop-color="#FFE9A8" stop-opacity="0"/></radialGradient>
<radialGradient id="vig" cx=".5" cy=".5" r=".75"><stop offset=".6" stop-color="#02060f" stop-opacity="0"/><stop offset="1" stop-color="#02060f" stop-opacity=".62"/></radialGradient>
<linearGradient id="rock" x1="0" y1="0" x2="0" y2="1"><stop offset="0" stop-color="#8a7f6c"/><stop offset="1" stop-color="#3b4a63"/></linearGradient>
<linearGradient id="turf" x1="0" y1="0" x2="0" y2="1"><stop offset="0" stop-color="#bff2dc"/><stop offset="1" stop-color="#6fc9a8"/></linearGradient>
<linearGradient id="wing" x1="1" y1="0" x2="0" y2="0"><stop offset="0" stop-color="#FFF8DC" stop-opacity=".95"/><stop offset=".55" stop-color="#CFE8FF" stop-opacity=".4"/><stop offset="1" stop-color="#8FD3FF" stop-opacity="0"/></linearGradient>
<linearGradient id="gold" x1="0" y1="0" x2="0" y2="1"><stop offset="0" stop-color="#FFFBE6"/><stop offset=".45" stop-color="#F8DC93"/><stop offset="1" stop-color="#C99A3E"/></linearGradient>
<linearGradient id="shine" gradientUnits="userSpaceOnUse" x1="-300" y1="0" x2="-150" y2="0"><stop offset="0" stop-color="#fff" stop-opacity="0"/><stop offset=".5" stop-color="#fff" stop-opacity=".95"/><stop offset="1" stop-color="#fff" stop-opacity="0"/><animate attributeName="x1" values="300;300;900;900" keyTimes="0;.55;.8;1" dur="7s" repeatCount="indefinite"/><animate attributeName="x2" values="450;450;1050;1050" keyTimes="0;.55;.8;1" dur="7s" repeatCount="indefinite"/></linearGradient>
<filter id="bl1"><feGaussianBlur stdDeviation=".8"/></filter><filter id="bl6"><feGaussianBlur stdDeviation="6"/></filter><filter id="bl9"><feGaussianBlur stdDeviation="9"/></filter>
<clipPath id="cp"><rect width="1200" height="440"/></clipPath><g id="cl"><ellipse cx="0" cy="0" rx="92" ry="26"/><ellipse cx="-56" cy="7" rx="62" ry="20"/><ellipse cx="58" cy="9" rx="72" ry="21"/><ellipse cx="8" cy="-15" rx="52" ry="22"/></g>
</defs>
<g clip-path="url(#cp)">
<rect width="1200" height="440" fill="url(#sky)"/>
<circle cx="745" cy="165.3" r="0.7" fill="#FFF3C4"><animate attributeName="opacity" values=".1;1;.1" dur="4s" begin="3.1s" repeatCount="indefinite"/></circle><circle cx="303.9" cy="19" r="1" fill="#FFF3C4"><animate attributeName="opacity" values=".1;1;.1" dur="1.8s" begin="1.9s" repeatCount="indefinite"/></circle><circle cx="301" cy="123.3" r="1" fill="#FFF3C4"><animate attributeName="opacity" values=".1;1;.1" dur="1.5s" begin="0.9s" repeatCount="indefinite"/></circle><circle cx="339.8" cy="202.3" r="1.8" fill="#FFF3C4"><animate attributeName="opacity" values=".1;1;.1" dur="2s" begin="3.2s" repeatCount="indefinite"/></circle><circle cx="173.7" cy="138.9" r="1" fill="#FFF3C4"><animate attributeName="opacity" values=".1;1;.1" dur="1.9s" begin="3.9s" repeatCount="indefinite"/></circle><circle cx="16.3" cy="172" r="1" fill="#FFF3C4"><animate attributeName="opacity" values=".1;1;.1" dur="4.1s" begin="1.2s" repeatCount="indefinite"/></circle><circle cx="1144.5" cy="122.3" r="1" fill="#FFF3C4"><animate attributeName="opacity" values=".1;1;.1" dur="2s" begin="3.9s" repeatCount="indefinite"/></circle><circle cx="242.3" cy="212.6" r="1.8" fill="#FFF3C4"><animate attributeName="opacity" values=".1;1;.1" dur="2.4s" begin="1.4s" repeatCount="indefinite"/></circle><circle cx="205.8" cy="38.9" r="0.7" fill="#FFF3C4"><animate attributeName="opacity" values=".1;1;.1" dur="2.5s" begin="3.3s" repeatCount="indefinite"/></circle><circle cx="701.6" cy="134.3" r="1.3" fill="#FFF3C4"><animate attributeName="opacity" values=".1;1;.1" dur="1.7s" begin="1.4s" repeatCount="indefinite"/></circle><circle cx="371.2" cy="155.6" r="1" fill="#FFF3C4"><animate attributeName="opacity" values=".1;1;.1" dur="2.9s" begin="2.8s" repeatCount="indefinite"/></circle><circle cx="77.3" cy="214.7" r="0.7" fill="#FFF3C4"><animate attributeName="opacity" values=".1;1;.1" dur="4.3s" begin="1.4s" repeatCount="indefinite"/></circle><circle cx="487.1" cy="124.4" r="1.8" fill="#FFF3C4"><animate attributeName="opacity" values=".1;1;.1" dur="2.6s" begin="2.3s" repeatCount="indefinite"/></circle><circle cx="20.7" cy="17.9" r="1" fill="#FFF3C4"><animate attributeName="opacity" values=".1;1;.1" dur="3.4s" begin="3.8s" repeatCount="indefinite"/></circle><circle cx="150.4" cy="60.2" r="1.8" fill="#FFF3C4"><animate attributeName="opacity" values=".1;1;.1" dur="2.5s" begin="1.4s" repeatCount="indefinite"/></circle><circle cx="629.1" cy="172.4" r="0.7" fill="#FFF3C4"><animate attributeName="opacity" values=".1;1;.1" dur="3.3s" begin="3.1s" repeatCount="indefinite"/></circle><circle cx="443.4" cy="70.7" r="1.8" fill="#FFF3C4"><animate attributeName="opacity" values=".1;1;.1" dur="4.3s" begin="0.4s" repeatCount="indefinite"/></circle><circle cx="412.1" cy="137.5" r="1" fill="#FFF3C4"><animate attributeName="opacity" values=".1;1;.1" dur="2.5s" begin="3.7s" repeatCount="indefinite"/></circle><circle cx="653.3" cy="74.2" r="1.3" fill="#FFF3C4"><animate attributeName="opacity" values=".1;1;.1" dur="2.4s" begin="3.2s" repeatCount="indefinite"/></circle><circle cx="749.6" cy="160.9" r="1.3" fill="#FFF3C4"><animate attributeName="opacity" values=".1;1;.1" dur="4.5s" begin="0.6s" repeatCount="indefinite"/></circle><circle cx="67.3" cy="217.2" r="1.8" fill="#FFF3C4"><animate attributeName="opacity" values=".1;1;.1" dur="1.6s" begin="3s" repeatCount="indefinite"/></circle><circle cx="415.7" cy="61" r="1.8" fill="#FFF3C4"><animate attributeName="opacity" values=".1;1;.1" dur="1.9s" begin="3.9s" repeatCount="indefinite"/></circle><circle cx="763.2" cy="178" r="1.3" fill="#FFF3C4"><animate attributeName="opacity" values=".1;1;.1" dur="4s" begin="0.5s" repeatCount="indefinite"/></circle><circle cx="873.4" cy="209.4" r="1.8" fill="#FFF3C4"><animate attributeName="opacity" values=".1;1;.1" dur="1.8s" begin="1.7s" repeatCount="indefinite"/></circle><circle cx="186.1" cy="187.1" r="1.3" fill="#FFF3C4"><animate attributeName="opacity" values=".1;1;.1" dur="1.9s" begin="3.7s" repeatCount="indefinite"/></circle><circle cx="742.1" cy="43.9" r="1.8" fill="#FFF3C4"><animate attributeName="opacity" values=".1;1;.1" dur="4.4s" begin="2.8s" repeatCount="indefinite"/></circle><circle cx="384.9" cy="66.1" r="1.8" fill="#FFF3C4"><animate attributeName="opacity" values=".1;1;.1" dur="2.7s" begin="0.6s" repeatCount="indefinite"/></circle><circle cx="454.9" cy="217.5" r="1" fill="#FFF3C4"><animate attributeName="opacity" values=".1;1;.1" dur="3.4s" begin="2s" repeatCount="indefinite"/></circle><circle cx="409.4" cy="26.9" r="1.3" fill="#FFF3C4"><animate attributeName="opacity" values=".1;1;.1" dur="3s" begin="2.2s" repeatCount="indefinite"/></circle><circle cx="603.3" cy="21.4" r="1.3" fill="#FFF3C4"><animate attributeName="opacity" values=".1;1;.1" dur="3.6s" begin="2.7s" repeatCount="indefinite"/></circle><circle cx="906.4" cy="85" r="1.3" fill="#FFF3C4"><animate attributeName="opacity" values=".1;1;.1" dur="4s" begin="1.1s" repeatCount="indefinite"/></circle><circle cx="1167.5" cy="159.8" r="1.3" fill="#FFF3C4"><animate attributeName="opacity" values=".1;1;.1" dur="3.4s" begin="2.3s" repeatCount="indefinite"/></circle><circle cx="23.7" cy="124" r="1.3" fill="#FFF3C4"><animate attributeName="opacity" values=".1;1;.1" dur="2.5s" begin="1.1s" repeatCount="indefinite"/></circle><circle cx="350.8" cy="114.1" r="1.3" fill="#FFF3C4"><animate attributeName="opacity" values=".1;1;.1" dur="2.5s" begin="2.6s" repeatCount="indefinite"/></circle><circle cx="880.6" cy="183.6" r="1.3" fill="#FFF3C4"><animate attributeName="opacity" values=".1;1;.1" dur="4.3s" begin="0.7s" repeatCount="indefinite"/></circle><circle cx="1033" cy="103.4" r="1.3" fill="#FFF3C4"><animate attributeName="opacity" values=".1;1;.1" dur="4.4s" begin="2.1s" repeatCount="indefinite"/></circle><circle cx="634.6" cy="43.2" r="1.3" fill="#FFF3C4"><animate attributeName="opacity" values=".1;1;.1" dur="4.3s" begin="1.9s" repeatCount="indefinite"/></circle><circle cx="825.9" cy="160.6" r="1.8" fill="#FFF3C4"><animate attributeName="opacity" values=".1;1;.1" dur="2s" begin="3.1s" repeatCount="indefinite"/></circle><circle cx="695.4" cy="149.1" r="1.8" fill="#FFF3C4"><animate attributeName="opacity" values=".1;1;.1" dur="2.4s" begin="2.2s" repeatCount="indefinite"/></circle><circle cx="1033.2" cy="65.4" r="0.7" fill="#FFF3C4"><animate attributeName="opacity" values=".1;1;.1" dur="2.1s" begin="2.3s" repeatCount="indefinite"/></circle><circle cx="746.4" cy="46.3" r="1" fill="#FFF3C4"><animate attributeName="opacity" values=".1;1;.1" dur="3.4s" begin="0.2s" repeatCount="indefinite"/></circle><circle cx="566.5" cy="56" r="0.7" fill="#FFF3C4"><animate attributeName="opacity" values=".1;1;.1" dur="4.2s" begin="0.4s" repeatCount="indefinite"/></circle><circle cx="1152.2" cy="110.3" r="0.7" fill="#FFF3C4"><animate attributeName="opacity" values=".1;1;.1" dur="2.7s" begin="1.4s" repeatCount="indefinite"/></circle><circle cx="791.8" cy="23.3" r="1" fill="#FFF3C4"><animate attributeName="opacity" values=".1;1;.1" dur="2.2s" begin="3.6s" repeatCount="indefinite"/></circle><circle cx="10.8" cy="93.9" r="1.3" fill="#FFF3C4"><animate attributeName="opacity" values=".1;1;.1" dur="4.1s" begin="3.5s" repeatCount="indefinite"/></circle><circle cx="822.8" cy="124" r="0.7" fill="#FFF3C4"><animate attributeName="opacity" values=".1;1;.1" dur="3.1s" begin="1.2s" repeatCount="indefinite"/></circle><circle cx="358.4" cy="116.7" r="1.3" fill="#FFF3C4"><animate attributeName="opacity" values=".1;1;.1" dur="4.4s" begin="3.3s" repeatCount="indefinite"/></circle><circle cx="504.5" cy="180.4" r="1.3" fill="#FFF3C4"><animate attributeName="opacity" values=".1;1;.1" dur="2.9s" begin="0.6s" repeatCount="indefinite"/></circle><circle cx="461.6" cy="109.1" r="1" fill="#FFF3C4"><animate attributeName="opacity" values=".1;1;.1" dur="4.4s" begin="2.4s" repeatCount="indefinite"/></circle><circle cx="424.3" cy="197.4" r="0.7" fill="#FFF3C4"><animate attributeName="opacity" values=".1;1;.1" dur="2.6s" begin="1.3s" repeatCount="indefinite"/></circle><circle cx="1091.4" cy="122.4" r="1.3" fill="#FFF3C4"><animate attributeName="opacity" values=".1;1;.1" dur="3.4s" begin="3.6s" repeatCount="indefinite"/></circle><circle cx="453.5" cy="99.5" r="1" fill="#FFF3C4"><animate attributeName="opacity" values=".1;1;.1" dur="3s" begin="1.9s" repeatCount="indefinite"/></circle><circle cx="845.8" cy="89.4" r="1" fill="#FFF3C4"><animate attributeName="opacity" values=".1;1;.1" dur="3.3s" begin="1s" repeatCount="indefinite"/></circle><circle cx="1167.6" cy="113.2" r="1.8" fill="#FFF3C4"><animate attributeName="opacity" values=".1;1;.1" dur="1.6s" begin="3.8s" repeatCount="indefinite"/></circle><circle cx="372.8" cy="205.1" r="1" fill="#FFF3C4"><animate attributeName="opacity" values=".1;1;.1" dur="2.9s" begin="0.5s" repeatCount="indefinite"/></circle><circle cx="743.6" cy="102" r="1.3" fill="#FFF3C4"><animate attributeName="opacity" values=".1;1;.1" dur="1.6s" begin="0.5s" repeatCount="indefinite"/></circle><circle cx="473" cy="109.8" r="1.3" fill="#FFF3C4"><animate attributeName="opacity" values=".1;1;.1" dur="2.2s" begin="1.9s" repeatCount="indefinite"/></circle><circle cx="53.4" cy="111.9" r="1" fill="#FFF3C4"><animate attributeName="opacity" values=".1;1;.1" dur="3.7s" begin="1.1s" repeatCount="indefinite"/></circle><circle cx="590.9" cy="218.4" r="0.7" fill="#FFF3C4"><animate attributeName="opacity" values=".1;1;.1" dur="1.5s" begin="0.5s" repeatCount="indefinite"/></circle><circle cx="343.2" cy="158.1" r="1.3" fill="#FFF3C4"><animate attributeName="opacity" values=".1;1;.1" dur="3.7s" begin="0.1s" repeatCount="indefinite"/></circle><circle cx="422.7" cy="152.5" r="1" fill="#FFF3C4"><animate attributeName="opacity" values=".1;1;.1" dur="1.6s" begin="1s" repeatCount="indefinite"/></circle><circle cx="547.6" cy="202.3" r="1" fill="#FFF3C4"><animate attributeName="opacity" values=".1;1;.1" dur="1.5s" begin="3.1s" repeatCount="indefinite"/></circle><circle cx="514.7" cy="130" r="1.8" fill="#FFF3C4"><animate attributeName="opacity" values=".1;1;.1" dur="4.1s" begin="3.4s" repeatCount="indefinite"/></circle><circle cx="571.3" cy="152.7" r="1" fill="#FFF3C4"><animate attributeName="opacity" values=".1;1;.1" dur="4.2s" begin="1.9s" repeatCount="indefinite"/></circle><circle cx="904.7" cy="72.4" r="0.7" fill="#FFF3C4"><animate attributeName="opacity" values=".1;1;.1" dur="3.6s" begin="1.7s" repeatCount="indefinite"/></circle><circle cx="347.9" cy="173.5" r="1.3" fill="#FFF3C4"><animate attributeName="opacity" values=".1;1;.1" dur="1.9s" begin="1.9s" repeatCount="indefinite"/></circle><circle cx="657.9" cy="113.5" r="1.3" fill="#FFF3C4"><animate attributeName="opacity" values=".1;1;.1" dur="3.1s" begin="1.7s" repeatCount="indefinite"/></circle><circle cx="648.9" cy="18.3" r="1" fill="#FFF3C4"><animate attributeName="opacity" values=".1;1;.1" dur="2.3s" begin="0.3s" repeatCount="indefinite"/></circle><circle cx="84.2" cy="207.7" r="1.3" fill="#FFF3C4"><animate attributeName="opacity" values=".1;1;.1" dur="3.7s" begin="3.9s" repeatCount="indefinite"/></circle><circle cx="1188" cy="156.7" r="0.7" fill="#FFF3C4"><animate attributeName="opacity" values=".1;1;.1" dur="1.9s" begin="0.5s" repeatCount="indefinite"/></circle>
<g><animateTransform attributeName="transform" type="rotate" values="0 600 300;360 600 300" dur="170s" repeatCount="indefinite"/><polygon points="600,300 1500,300 1497.8,362.9" fill="#FFF3C4" opacity=".11"/><polygon points="600,300 1431.5,644.4 1405.4,701.7" fill="#FFF3C4" opacity=".11"/><polygon points="600,300 1236.4,936.4 1190.3,979.4" fill="#FFF3C4" opacity=".11"/><polygon points="600,300 944.4,1131.5 885.4,1153.5" fill="#FFF3C4" opacity=".11"/><polygon points="600,300 600,1200 537,1197.8" fill="#FFF3C4" opacity=".11"/><polygon points="600,300 255.6,1131.5 198.3,1105.4" fill="#FFF3C4" opacity=".11"/><polygon points="600,300 -36.4,936.4 -79.4,890.3" fill="#FFF3C4" opacity=".11"/><polygon points="600,300 -231.5,644.4 -253.5,585.4" fill="#FFF3C4" opacity=".11"/><polygon points="600,300 -300,300 -297.8,237" fill="#FFF3C4" opacity=".11"/><polygon points="600,300 -231.5,-44.4 -205.4,-101.7" fill="#FFF3C4" opacity=".11"/><polygon points="600,300 -36.4,-336.4 9.7,-379.4" fill="#FFF3C4" opacity=".11"/><polygon points="600,300 255.6,-531.5 314.6,-553.5" fill="#FFF3C4" opacity=".11"/><polygon points="600,300 600,-600 663,-597.8" fill="#FFF3C4" opacity=".11"/><polygon points="600,300 944.4,-531.5 1001.7,-505.4" fill="#FFF3C4" opacity=".11"/><polygon points="600,300 1236.4,-336.4 1279.4,-290.3" fill="#FFF3C4" opacity=".11"/><polygon points="600,300 1431.5,-44.4 1453.5,14.6" fill="#FFF3C4" opacity=".11"/></g>
<circle cx="600" cy="300" r="270" fill="url(#halo)"><animate attributeName="opacity" values=".75;1;.75" dur="6s" repeatCount="indefinite"/></circle>
<g fill="#dfeaf8" opacity="0.55" filter="url(#bl9)"><g><animateTransform attributeName="transform" type="translate" values="0 0;-1200 0" dur="110s" repeatCount="indefinite"/><use href="#cl" transform="translate(737.5 315.9) scale(1 0.8)"/><use href="#cl" transform="translate(1937.5 315.9) scale(1 0.8)"/><use href="#cl" transform="translate(1073.8 329.5) scale(1.3 1)"/><use href="#cl" transform="translate(2273.8 329.5) scale(1.3 1)"/><use href="#cl" transform="translate(525.6 264.6) scale(1 0.8)"/><use href="#cl" transform="translate(1725.6 264.6) scale(1 0.8)"/><use href="#cl" transform="translate(962.5 255.4) scale(1 0.8)"/><use href="#cl" transform="translate(2162.5 255.4) scale(1 0.8)"/><use href="#cl" transform="translate(666.6 302.8) scale(1.3 1.1)"/><use href="#cl" transform="translate(1866.6 302.8) scale(1.3 1.1)"/><use href="#cl" transform="translate(335.8 295.7) scale(1 0.8)"/><use href="#cl" transform="translate(1535.8 295.7) scale(1 0.8)"/><use href="#cl" transform="translate(478.2 299.9) scale(0.9 0.7)"/><use href="#cl" transform="translate(1678.2 299.9) scale(0.9 0.7)"/></g></g>
<g transform="translate(1010 120) scale(0.4)" opacity="0.6"><g><animateTransform attributeName="transform" type="translate" values="0 0;0 -9;0 0" dur="7s" begin="0s" repeatCount="indefinite"/><path d="M-72 0 C-64 36 -36 66 -8 124 C-3 134 3 134 8 124 C36 66 64 36 72 0 Z" fill="url(#rock)"/><ellipse cx="0" cy="0" rx="72" ry="11" fill="url(#turf)"/><circle cx="-58" cy="-8" r="8" fill="#5fb89a"/><circle cx="-49" cy="-12" r="6" fill="#74cdb0"/><circle cx="58" cy="-7" r="7" fill="#5fb89a"/><rect x="-36" y="-12" width="72" height="5" fill="#efe4c4"/><rect x="-31" y="-42" width="5" height="30" fill="#fff6dc"/><rect x="-18.6" y="-42" width="5" height="30" fill="#fff6dc"/><rect x="-6.2" y="-42" width="5" height="30" fill="#fff6dc"/><rect x="6.2" y="-42" width="5" height="30" fill="#fff6dc"/><rect x="18.6" y="-42" width="5" height="30" fill="#fff6dc"/><rect x="31" y="-42" width="5" height="30" fill="#fff6dc"/><rect x="-38" y="-48" width="76" height="6" fill="#f6e9bd" stroke="#e8c170" stroke-width=".8"/><polygon points="-40,-48 0,-72 40,-48" fill="#fff3c8" stroke="#e8c170" stroke-width=".8"/><circle cx="0" cy="-56" r="3" fill="#8fd3ff"><animate attributeName="opacity" values=".4;1;.4" dur="2.5s" repeatCount="indefinite"/></circle></g></g><g transform="translate(215 105) scale(0.4)" opacity="0.6"><g><animateTransform attributeName="transform" type="translate" values="0 0;0 -9;0 0" dur="8s" begin="1s" repeatCount="indefinite"/><path d="M-72 0 C-64 36 -36 66 -8 124 C-3 134 3 134 8 124 C36 66 64 36 72 0 Z" fill="url(#rock)"/><ellipse cx="0" cy="0" rx="72" ry="11" fill="url(#turf)"/><circle cx="-58" cy="-8" r="8" fill="#5fb89a"/><circle cx="-49" cy="-12" r="6" fill="#74cdb0"/><circle cx="58" cy="-7" r="7" fill="#5fb89a"/><rect x="-36" y="-12" width="72" height="5" fill="#efe4c4"/><rect x="-31" y="-42" width="5" height="30" fill="#fff6dc"/><rect x="-18.6" y="-42" width="5" height="30" fill="#fff6dc"/><rect x="-6.2" y="-42" width="5" height="30" fill="#fff6dc"/><rect x="6.2" y="-42" width="5" height="30" fill="#fff6dc"/><rect x="18.6" y="-42" width="5" height="30" fill="#fff6dc"/><rect x="31" y="-42" width="5" height="30" fill="#fff6dc"/><rect x="-38" y="-48" width="76" height="6" fill="#f6e9bd" stroke="#e8c170" stroke-width=".8"/><polygon points="-40,-48 0,-72 40,-48" fill="#fff3c8" stroke="#e8c170" stroke-width=".8"/><circle cx="0" cy="-56" r="3" fill="#8fd3ff"><animate attributeName="opacity" values=".4;1;.4" dur="2.5s" repeatCount="indefinite"/></circle></g></g><g transform="translate(880 215) scale(0.3)" opacity="0.5"><g><animateTransform attributeName="transform" type="translate" values="0 0;0 -9;0 0" dur="9s" begin="2s" repeatCount="indefinite"/><path d="M-72 0 C-64 36 -36 66 -8 124 C-3 134 3 134 8 124 C36 66 64 36 72 0 Z" fill="url(#rock)"/><ellipse cx="0" cy="0" rx="72" ry="11" fill="url(#turf)"/><circle cx="-58" cy="-8" r="8" fill="#5fb89a"/><circle cx="-49" cy="-12" r="6" fill="#74cdb0"/><circle cx="58" cy="-7" r="7" fill="#5fb89a"/><rect x="-36" y="-12" width="72" height="5" fill="#efe4c4"/><rect x="-31" y="-42" width="5" height="30" fill="#fff6dc"/><rect x="-18.6" y="-42" width="5" height="30" fill="#fff6dc"/><rect x="-6.2" y="-42" width="5" height="30" fill="#fff6dc"/><rect x="6.2" y="-42" width="5" height="30" fill="#fff6dc"/><rect x="18.6" y="-42" width="5" height="30" fill="#fff6dc"/><rect x="31" y="-42" width="5" height="30" fill="#fff6dc"/><rect x="-38" y="-48" width="76" height="6" fill="#f6e9bd" stroke="#e8c170" stroke-width=".8"/><polygon points="-40,-48 0,-72 40,-48" fill="#fff3c8" stroke="#e8c170" stroke-width=".8"/><circle cx="0" cy="-56" r="3" fill="#8fd3ff"><animate attributeName="opacity" values=".4;1;.4" dur="2.5s" repeatCount="indefinite"/></circle></g></g>
<g fill="#ffffff" opacity="0.6" filter="url(#bl9)"><g><animateTransform attributeName="transform" type="translate" values="0 0;-1200 0" dur="75s" repeatCount="indefinite"/><use href="#cl" transform="translate(109.7 328) scale(1.4 1.1)"/><use href="#cl" transform="translate(1309.7 328) scale(1.4 1.1)"/><use href="#cl" transform="translate(424.1 325.9) scale(1.7 1.4)"/><use href="#cl" transform="translate(1624.1 325.9) scale(1.7 1.4)"/><use href="#cl" transform="translate(165.9 300.6) scale(1.5 1.2)"/><use href="#cl" transform="translate(1365.9 300.6) scale(1.5 1.2)"/><use href="#cl" transform="translate(813.5 300.3) scale(1.8 1.4)"/><use href="#cl" transform="translate(2013.5 300.3) scale(1.8 1.4)"/><use href="#cl" transform="translate(659.9 295.4) scale(1.1 0.9)"/><use href="#cl" transform="translate(1859.9 295.4) scale(1.1 0.9)"/><use href="#cl" transform="translate(282.8 338.3) scale(1.3 1)"/><use href="#cl" transform="translate(1482.8 338.3) scale(1.3 1)"/></g></g>
<g transform="translate(95 215) scale(0.9)" opacity="1"><g><animateTransform attributeName="transform" type="translate" values="0 0;0 -9;0 0" dur="6.5s" begin="0s" repeatCount="indefinite"/><path d="M-72 0 C-64 36 -36 66 -8 124 C-3 134 3 134 8 124 C36 66 64 36 72 0 Z" fill="url(#rock)"/><ellipse cx="0" cy="0" rx="72" ry="11" fill="url(#turf)"/><circle cx="-58" cy="-8" r="8" fill="#5fb89a"/><circle cx="-49" cy="-12" r="6" fill="#74cdb0"/><circle cx="58" cy="-7" r="7" fill="#5fb89a"/><rect x="-36" y="-12" width="72" height="5" fill="#efe4c4"/><rect x="-31" y="-42" width="5" height="30" fill="#fff6dc"/><rect x="-18.6" y="-42" width="5" height="30" fill="#fff6dc"/><rect x="-6.2" y="-42" width="5" height="30" fill="#fff6dc"/><rect x="6.2" y="-42" width="5" height="30" fill="#fff6dc"/><rect x="18.6" y="-42" width="5" height="30" fill="#fff6dc"/><rect x="31" y="-42" width="5" height="30" fill="#fff6dc"/><rect x="-38" y="-48" width="76" height="6" fill="#f6e9bd" stroke="#e8c170" stroke-width=".8"/><polygon points="-40,-48 0,-72 40,-48" fill="#fff3c8" stroke="#e8c170" stroke-width=".8"/><circle cx="0" cy="-56" r="3" fill="#8fd3ff"><animate attributeName="opacity" values=".4;1;.4" dur="2.5s" repeatCount="indefinite"/></circle></g></g><g transform="translate(1105 235) scale(1.1)" opacity="1"><g><animateTransform attributeName="transform" type="translate" values="0 0;0 -9;0 0" dur="7.5s" begin="1.5s" repeatCount="indefinite"/><path d="M-72 0 C-64 36 -36 66 -8 124 C-3 134 3 134 8 124 C36 66 64 36 72 0 Z" fill="url(#rock)"/><ellipse cx="0" cy="0" rx="72" ry="11" fill="url(#turf)"/><circle cx="-58" cy="-8" r="8" fill="#5fb89a"/><circle cx="-49" cy="-12" r="6" fill="#74cdb0"/><circle cx="58" cy="-7" r="7" fill="#5fb89a"/><rect x="-36" y="-12" width="72" height="5" fill="#efe4c4"/><rect x="-31" y="-42" width="5" height="30" fill="#fff6dc"/><rect x="-18.6" y="-42" width="5" height="30" fill="#fff6dc"/><rect x="-6.2" y="-42" width="5" height="30" fill="#fff6dc"/><rect x="6.2" y="-42" width="5" height="30" fill="#fff6dc"/><rect x="18.6" y="-42" width="5" height="30" fill="#fff6dc"/><rect x="31" y="-42" width="5" height="30" fill="#fff6dc"/><rect x="-38" y="-48" width="76" height="6" fill="#f6e9bd" stroke="#e8c170" stroke-width=".8"/><polygon points="-40,-48 0,-72 40,-48" fill="#fff3c8" stroke="#e8c170" stroke-width=".8"/><circle cx="0" cy="-56" r="3" fill="#8fd3ff"><animate attributeName="opacity" values=".4;1;.4" dur="2.5s" repeatCount="indefinite"/></circle></g></g>
<g transform="translate(470 225) scale(1.15 1.15)"><g><animateTransform attributeName="transform" type="rotate" values="0;-5;4;0" keyTimes="0;.35;.7;1" calcMode="spline" keySplines=".4 0 .2 1;.4 0 .2 1;.4 0 .2 1" dur="4.5s" begin="0s" repeatCount="indefinite"/><path transform="rotate(-58) scale(0.5)" d="M0 0 C-60 -34 -190 -46 -330 -26 C-220 -12 -120 12 0 14 Z" fill="url(#wing)" stroke="#F5D78E" stroke-opacity=".55"/></g><g><animateTransform attributeName="transform" type="rotate" values="0;-5.4;4;0" keyTimes="0;.35;.7;1" calcMode="spline" keySplines=".4 0 .2 1;.4 0 .2 1;.4 0 .2 1" dur="4.5s" begin="0.1s" repeatCount="indefinite"/><path transform="rotate(-44) scale(0.7)" d="M0 0 C-60 -34 -190 -46 -330 -26 C-220 -12 -120 12 0 14 Z" fill="url(#wing)" stroke="#F5D78E" stroke-opacity=".55"/></g><g><animateTransform attributeName="transform" type="rotate" values="0;-5.8;4;0" keyTimes="0;.35;.7;1" calcMode="spline" keySplines=".4 0 .2 1;.4 0 .2 1;.4 0 .2 1" dur="4.5s" begin="0.2s" repeatCount="indefinite"/><path transform="rotate(-30) scale(0.9)" d="M0 0 C-60 -34 -190 -46 -330 -26 C-220 -12 -120 12 0 14 Z" fill="url(#wing)" stroke="#F5D78E" stroke-opacity=".55"/></g><g><animateTransform attributeName="transform" type="rotate" values="0;-6.2;4;0" keyTimes="0;.35;.7;1" calcMode="spline" keySplines=".4 0 .2 1;.4 0 .2 1;.4 0 .2 1" dur="4.5s" begin="0.3s" repeatCount="indefinite"/><path transform="rotate(-16) scale(1)" d="M0 0 C-60 -34 -190 -46 -330 -26 C-220 -12 -120 12 0 14 Z" fill="url(#wing)" stroke="#F5D78E" stroke-opacity=".55"/></g><g><animateTransform attributeName="transform" type="rotate" values="0;-6.6;4;0" keyTimes="0;.35;.7;1" calcMode="spline" keySplines=".4 0 .2 1;.4 0 .2 1;.4 0 .2 1" dur="4.5s" begin="0.4s" repeatCount="indefinite"/><path transform="rotate(-2) scale(1.1)" d="M0 0 C-60 -34 -190 -46 -330 -26 C-220 -12 -120 12 0 14 Z" fill="url(#wing)" stroke="#F5D78E" stroke-opacity=".55"/></g><g><animateTransform attributeName="transform" type="rotate" values="0;-7;4;0" keyTimes="0;.35;.7;1" calcMode="spline" keySplines=".4 0 .2 1;.4 0 .2 1;.4 0 .2 1" dur="4.5s" begin="0.5s" repeatCount="indefinite"/><path transform="rotate(12) scale(1)" d="M0 0 C-60 -34 -190 -46 -330 -26 C-220 -12 -120 12 0 14 Z" fill="url(#wing)" stroke="#F5D78E" stroke-opacity=".55"/></g><g><animateTransform attributeName="transform" type="rotate" values="0;-7.4;4;0" keyTimes="0;.35;.7;1" calcMode="spline" keySplines=".4 0 .2 1;.4 0 .2 1;.4 0 .2 1" dur="4.5s" begin="0.6s" repeatCount="indefinite"/><path transform="rotate(26) scale(0.8)" d="M0 0 C-60 -34 -190 -46 -330 -26 C-220 -12 -120 12 0 14 Z" fill="url(#wing)" stroke="#F5D78E" stroke-opacity=".55"/></g><g><animateTransform attributeName="transform" type="rotate" values="0;-7.8;4;0" keyTimes="0;.35;.7;1" calcMode="spline" keySplines=".4 0 .2 1;.4 0 .2 1;.4 0 .2 1" dur="4.5s" begin="0.7s" repeatCount="indefinite"/><path transform="rotate(40) scale(0.7)" d="M0 0 C-60 -34 -190 -46 -330 -26 C-220 -12 -120 12 0 14 Z" fill="url(#wing)" stroke="#F5D78E" stroke-opacity=".55"/></g></g><g transform="translate(730 225) scale(-1.15 1.15)"><g><animateTransform attributeName="transform" type="rotate" values="0;-5;4;0" keyTimes="0;.35;.7;1" calcMode="spline" keySplines=".4 0 .2 1;.4 0 .2 1;.4 0 .2 1" dur="4.5s" begin="0s" repeatCount="indefinite"/><path transform="rotate(-58) scale(0.5)" d="M0 0 C-60 -34 -190 -46 -330 -26 C-220 -12 -120 12 0 14 Z" fill="url(#wing)" stroke="#F5D78E" stroke-opacity=".55"/></g><g><animateTransform attributeName="transform" type="rotate" values="0;-5.4;4;0" keyTimes="0;.35;.7;1" calcMode="spline" keySplines=".4 0 .2 1;.4 0 .2 1;.4 0 .2 1" dur="4.5s" begin="0.1s" repeatCount="indefinite"/><path transform="rotate(-44) scale(0.7)" d="M0 0 C-60 -34 -190 -46 -330 -26 C-220 -12 -120 12 0 14 Z" fill="url(#wing)" stroke="#F5D78E" stroke-opacity=".55"/></g><g><animateTransform attributeName="transform" type="rotate" values="0;-5.8;4;0" keyTimes="0;.35;.7;1" calcMode="spline" keySplines=".4 0 .2 1;.4 0 .2 1;.4 0 .2 1" dur="4.5s" begin="0.2s" repeatCount="indefinite"/><path transform="rotate(-30) scale(0.9)" d="M0 0 C-60 -34 -190 -46 -330 -26 C-220 -12 -120 12 0 14 Z" fill="url(#wing)" stroke="#F5D78E" stroke-opacity=".55"/></g><g><animateTransform attributeName="transform" type="rotate" values="0;-6.2;4;0" keyTimes="0;.35;.7;1" calcMode="spline" keySplines=".4 0 .2 1;.4 0 .2 1;.4 0 .2 1" dur="4.5s" begin="0.3s" repeatCount="indefinite"/><path transform="rotate(-16) scale(1)" d="M0 0 C-60 -34 -190 -46 -330 -26 C-220 -12 -120 12 0 14 Z" fill="url(#wing)" stroke="#F5D78E" stroke-opacity=".55"/></g><g><animateTransform attributeName="transform" type="rotate" values="0;-6.6;4;0" keyTimes="0;.35;.7;1" calcMode="spline" keySplines=".4 0 .2 1;.4 0 .2 1;.4 0 .2 1" dur="4.5s" begin="0.4s" repeatCount="indefinite"/><path transform="rotate(-2) scale(1.1)" d="M0 0 C-60 -34 -190 -46 -330 -26 C-220 -12 -120 12 0 14 Z" fill="url(#wing)" stroke="#F5D78E" stroke-opacity=".55"/></g><g><animateTransform attributeName="transform" type="rotate" values="0;-7;4;0" keyTimes="0;.35;.7;1" calcMode="spline" keySplines=".4 0 .2 1;.4 0 .2 1;.4 0 .2 1" dur="4.5s" begin="0.5s" repeatCount="indefinite"/><path transform="rotate(12) scale(1)" d="M0 0 C-60 -34 -190 -46 -330 -26 C-220 -12 -120 12 0 14 Z" fill="url(#wing)" stroke="#F5D78E" stroke-opacity=".55"/></g><g><animateTransform attributeName="transform" type="rotate" values="0;-7.4;4;0" keyTimes="0;.35;.7;1" calcMode="spline" keySplines=".4 0 .2 1;.4 0 .2 1;.4 0 .2 1" dur="4.5s" begin="0.6s" repeatCount="indefinite"/><path transform="rotate(26) scale(0.8)" d="M0 0 C-60 -34 -190 -46 -330 -26 C-220 -12 -120 12 0 14 Z" fill="url(#wing)" stroke="#F5D78E" stroke-opacity=".55"/></g><g><animateTransform attributeName="transform" type="rotate" values="0;-7.8;4;0" keyTimes="0;.35;.7;1" calcMode="spline" keySplines=".4 0 .2 1;.4 0 .2 1;.4 0 .2 1" dur="4.5s" begin="0.7s" repeatCount="indefinite"/><path transform="rotate(40) scale(0.7)" d="M0 0 C-60 -34 -190 -46 -330 -26 C-220 -12 -120 12 0 14 Z" fill="url(#wing)" stroke="#F5D78E" stroke-opacity=".55"/></g></g>
<circle cx="600" cy="205" r="165" fill="none" stroke="#F5D78E" stroke-opacity=".5" stroke-dasharray="3 9"><animateTransform attributeName="transform" type="rotate" values="0 600 205;360 600 205" dur="60s" repeatCount="indefinite"/></circle>
<circle cx="600" cy="205" r="182" fill="none" stroke="#FFF3C4" stroke-opacity=".28" stroke-width="1"/>
<text x="600" y="246" text-anchor="middle" font-family="Georgia, 'Times New Roman', serif" font-size="120" font-weight="700"  letter-spacing="20" fill="#FFE9A8" filter="url(#bl6)" opacity=".7">EXID</text><text x="608.1" y="261.3" text-anchor="middle" font-family="Georgia, 'Times New Roman', serif" font-size="120" font-weight="700"  letter-spacing="20" fill="#6d4d14">EXID</text><text x="607.2" y="259.6" text-anchor="middle" font-family="Georgia, 'Times New Roman', serif" font-size="120" font-weight="700"  letter-spacing="20" fill="#6d4d14">EXID</text><text x="606.3" y="257.9" text-anchor="middle" font-family="Georgia, 'Times New Roman', serif" font-size="120" font-weight="700"  letter-spacing="20" fill="#6d4d14">EXID</text><text x="605.4" y="256.2" text-anchor="middle" font-family="Georgia, 'Times New Roman', serif" font-size="120" font-weight="700"  letter-spacing="20" fill="#6d4d14">EXID</text><text x="604.5" y="254.5" text-anchor="middle" font-family="Georgia, 'Times New Roman', serif" font-size="120" font-weight="700"  letter-spacing="20" fill="#6d4d14">EXID</text><text x="603.6" y="252.8" text-anchor="middle" font-family="Georgia, 'Times New Roman', serif" font-size="120" font-weight="700"  letter-spacing="20" fill="#6d4d14">EXID</text><text x="602.7" y="251.1" text-anchor="middle" font-family="Georgia, 'Times New Roman', serif" font-size="120" font-weight="700"  letter-spacing="20" fill="#6d4d14">EXID</text><text x="601.8" y="249.4" text-anchor="middle" font-family="Georgia, 'Times New Roman', serif" font-size="120" font-weight="700"  letter-spacing="20" fill="#6d4d14">EXID</text><text x="600.9" y="247.7" text-anchor="middle" font-family="Georgia, 'Times New Roman', serif" font-size="120" font-weight="700"  letter-spacing="20" fill="#6d4d14">EXID</text><text x="600" y="246" text-anchor="middle" font-family="Georgia, 'Times New Roman', serif" font-size="120" font-weight="700"  letter-spacing="20" fill="url(#gold)" stroke="#fff6d6" stroke-width="1.2" paint-order="stroke">EXID</text>
<text x="600" y="246" text-anchor="middle" font-family="Georgia, 'Times New Roman', serif" font-size="120" font-weight="700" letter-spacing="20" fill="url(#shine)">EXID</text>
<g stroke="#F5D78E" stroke-opacity=".85"><path d="M330 300H520M680 300H870"/></g>
<g fill="#F5D78E"><path d="M600 293l7 7-7 7-7-7z"/><path d="M522 300l-6-3v6z"/><path d="M678 300l6-3v6z"/></g>
<text x="601" y="307" text-anchor="middle" font-family="Georgia, 'Times New Roman', serif" font-size="16" letter-spacing="1" fill="#0b1630" opacity=".0"> </text>
<text x="600" y="346" text-anchor="middle" font-family="Georgia, 'Times New Roman', serif" font-size="17" font-weight="700" letter-spacing="9" fill="#FFFFFF" filter="url(#bl6)" opacity=".95">DAEVA OF ELYSIA  ·  BACKEND DEVELOPER</text>
<text x="600" y="346" text-anchor="middle" font-family="Georgia, 'Times New Roman', serif" font-size="17" font-weight="700" letter-spacing="9" fill="#10204a">DAEVA OF ELYSIA  ·  BACKEND DEVELOPER</text>
<circle cx="1132.1" cy="397" r="1.2" fill="#FFE9A8" filter="url(#bl1)"><animate attributeName="cy" values="397;264.2" dur="9.3s" begin="0.1s" repeatCount="indefinite"/><animate attributeName="cx" values="1132.1;1129.3" dur="9.3s" begin="2.7s" repeatCount="indefinite"/><animate attributeName="opacity" values="0;.9;0" dur="9.3s" begin="4.6s" repeatCount="indefinite"/></circle><circle cx="80.3" cy="403.6" r="1.7" fill="#FFE9A8" filter="url(#bl1)"><animate attributeName="cy" values="403.6;270.7" dur="7.5s" begin="7.7s" repeatCount="indefinite"/><animate attributeName="cx" values="80.3;77.5" dur="7.5s" begin="0.9s" repeatCount="indefinite"/><animate attributeName="opacity" values="0;.9;0" dur="7.5s" begin="4.2s" repeatCount="indefinite"/></circle><circle cx="647.2" cy="346.2" r="2.3" fill="#FFE9A8" filter="url(#bl1)"><animate attributeName="cy" values="346.2;208.9" dur="9.2s" begin="6s" repeatCount="indefinite"/><animate attributeName="cx" values="647.2;673.8" dur="9.2s" begin="0.7s" repeatCount="indefinite"/><animate attributeName="opacity" values="0;.9;0" dur="9.2s" begin="7.3s" repeatCount="indefinite"/></circle><circle cx="590.4" cy="325.4" r="1.5" fill="#FFE9A8" filter="url(#bl1)"><animate attributeName="cy" values="325.4;143.4" dur="8.5s" begin="7.4s" repeatCount="indefinite"/><animate attributeName="cx" values="590.4;583" dur="8.5s" begin="5.6s" repeatCount="indefinite"/><animate attributeName="opacity" values="0;.9;0" dur="8.5s" begin="6.4s" repeatCount="indefinite"/></circle><circle cx="463.5" cy="386.7" r="2.5" fill="#FFE9A8" filter="url(#bl1)"><animate attributeName="cy" values="386.7;227.3" dur="6.8s" begin="2.9s" repeatCount="indefinite"/><animate attributeName="cx" values="463.5;451.3" dur="6.8s" begin="0.3s" repeatCount="indefinite"/><animate attributeName="opacity" values="0;.9;0" dur="6.8s" begin="7.9s" repeatCount="indefinite"/></circle><circle cx="280.7" cy="321.7" r="1.3" fill="#FFE9A8" filter="url(#bl1)"><animate attributeName="cy" values="321.7;211.2" dur="5.3s" begin="3.9s" repeatCount="indefinite"/><animate attributeName="cx" values="280.7;252.9" dur="5.3s" begin="7.5s" repeatCount="indefinite"/><animate attributeName="opacity" values="0;.9;0" dur="5.3s" begin="5.3s" repeatCount="indefinite"/></circle><circle cx="430.3" cy="351.2" r="1.5" fill="#FFE9A8" filter="url(#bl1)"><animate attributeName="cy" values="351.2;159.9" dur="6.5s" begin="3.7s" repeatCount="indefinite"/><animate attributeName="cx" values="430.3;456.4" dur="6.5s" begin="1.5s" repeatCount="indefinite"/><animate attributeName="opacity" values="0;.9;0" dur="6.5s" begin="5.2s" repeatCount="indefinite"/></circle><circle cx="119.7" cy="404.3" r="1.2" fill="#FFE9A8" filter="url(#bl1)"><animate attributeName="cy" values="404.3;253.6" dur="9.3s" begin="6.5s" repeatCount="indefinite"/><animate attributeName="cx" values="119.7;117.9" dur="9.3s" begin="6s" repeatCount="indefinite"/><animate attributeName="opacity" values="0;.9;0" dur="9.3s" begin="5.4s" repeatCount="indefinite"/></circle><circle cx="77.1" cy="407.6" r="1.1" fill="#FFE9A8" filter="url(#bl1)"><animate attributeName="cy" values="407.6;282.8" dur="6.7s" begin="0.2s" repeatCount="indefinite"/><animate attributeName="cx" values="77.1;92.3" dur="6.7s" begin="3.7s" repeatCount="indefinite"/><animate attributeName="opacity" values="0;.9;0" dur="6.7s" begin="6.8s" repeatCount="indefinite"/></circle><circle cx="214.7" cy="394.2" r="2.6" fill="#FFE9A8" filter="url(#bl1)"><animate attributeName="cy" values="394.2;277.8" dur="6.6s" begin="0.3s" repeatCount="indefinite"/><animate attributeName="cx" values="214.7;211.9" dur="6.6s" begin="5.7s" repeatCount="indefinite"/><animate attributeName="opacity" values="0;.9;0" dur="6.6s" begin="4.6s" repeatCount="indefinite"/></circle><circle cx="775.2" cy="374.1" r="1.3" fill="#FFE9A8" filter="url(#bl1)"><animate attributeName="cy" values="374.1;209.3" dur="9.6s" begin="2.9s" repeatCount="indefinite"/><animate attributeName="cx" values="775.2;787.6" dur="9.6s" begin="0.5s" repeatCount="indefinite"/><animate attributeName="opacity" values="0;.9;0" dur="9.6s" begin="7.9s" repeatCount="indefinite"/></circle><circle cx="564.2" cy="393.1" r="2" fill="#FFE9A8" filter="url(#bl1)"><animate attributeName="cy" values="393.1;298.3" dur="5.9s" begin="5.8s" repeatCount="indefinite"/><animate attributeName="cx" values="564.2;546.7" dur="5.9s" begin="2.2s" repeatCount="indefinite"/><animate attributeName="opacity" values="0;.9;0" dur="5.9s" begin="3.7s" repeatCount="indefinite"/></circle><circle cx="547.4" cy="381.8" r="2.3" fill="#FFE9A8" filter="url(#bl1)"><animate attributeName="cy" values="381.8;199.9" dur="5.8s" begin="4.5s" repeatCount="indefinite"/><animate attributeName="cx" values="547.4;519.4" dur="5.8s" begin="7.5s" repeatCount="indefinite"/><animate attributeName="opacity" values="0;.9;0" dur="5.8s" begin="5.7s" repeatCount="indefinite"/></circle><circle cx="305.4" cy="396.4" r="2" fill="#FFE9A8" filter="url(#bl1)"><animate attributeName="cy" values="396.4;231.3" dur="5.5s" begin="4s" repeatCount="indefinite"/><animate attributeName="cx" values="305.4;303.7" dur="5.5s" begin="6.3s" repeatCount="indefinite"/><animate attributeName="opacity" values="0;.9;0" dur="5.5s" begin="0.4s" repeatCount="indefinite"/></circle><circle cx="973.4" cy="353.5" r="1.3" fill="#FFE9A8" filter="url(#bl1)"><animate attributeName="cy" values="353.5;159" dur="8.2s" begin="5.6s" repeatCount="indefinite"/><animate attributeName="cx" values="973.4;995.9" dur="8.2s" begin="5.1s" repeatCount="indefinite"/><animate attributeName="opacity" values="0;.9;0" dur="8.2s" begin="1.5s" repeatCount="indefinite"/></circle><circle cx="301.8" cy="411.2" r="1.3" fill="#FFE9A8" filter="url(#bl1)"><animate attributeName="cy" values="411.2;212.9" dur="9s" begin="0.6s" repeatCount="indefinite"/><animate attributeName="cx" values="301.8;277" dur="9s" begin="5.8s" repeatCount="indefinite"/><animate attributeName="opacity" values="0;.9;0" dur="9s" begin="5s" repeatCount="indefinite"/></circle><circle cx="534.2" cy="342.9" r="1.2" fill="#FFE9A8" filter="url(#bl1)"><animate attributeName="cy" values="342.9;195.5" dur="7.1s" begin="0.1s" repeatCount="indefinite"/><animate attributeName="cx" values="534.2;550.2" dur="7.1s" begin="6s" repeatCount="indefinite"/><animate attributeName="opacity" values="0;.9;0" dur="7.1s" begin="5.5s" repeatCount="indefinite"/></circle><circle cx="1038.5" cy="420" r="2.2" fill="#FFE9A8" filter="url(#bl1)"><animate attributeName="cy" values="420;276.8" dur="7.8s" begin="2.1s" repeatCount="indefinite"/><animate attributeName="cx" values="1038.5;1016.8" dur="7.8s" begin="3.2s" repeatCount="indefinite"/><animate attributeName="opacity" values="0;.9;0" dur="7.8s" begin="1.1s" repeatCount="indefinite"/></circle><circle cx="641.2" cy="356.6" r="2.1" fill="#FFE9A8" filter="url(#bl1)"><animate attributeName="cy" values="356.6;160.1" dur="8.5s" begin="2.2s" repeatCount="indefinite"/><animate attributeName="cx" values="641.2;659.1" dur="8.5s" begin="3.9s" repeatCount="indefinite"/><animate attributeName="opacity" values="0;.9;0" dur="8.5s" begin="2s" repeatCount="indefinite"/></circle><circle cx="828" cy="395.5" r="2.2" fill="#FFE9A8" filter="url(#bl1)"><animate attributeName="cy" values="395.5;297.6" dur="9.4s" begin="3s" repeatCount="indefinite"/><animate attributeName="cx" values="828;851.2" dur="9.4s" begin="6.2s" repeatCount="indefinite"/><animate attributeName="opacity" values="0;.9;0" dur="9.4s" begin="0s" repeatCount="indefinite"/></circle><circle cx="360.2" cy="412.8" r="2.1" fill="#FFE9A8" filter="url(#bl1)"><animate attributeName="cy" values="412.8;307.1" dur="5.7s" begin="6.3s" repeatCount="indefinite"/><animate attributeName="cx" values="360.2;331.9" dur="5.7s" begin="0.1s" repeatCount="indefinite"/><animate attributeName="opacity" values="0;.9;0" dur="5.7s" begin="0.4s" repeatCount="indefinite"/></circle><circle cx="518.9" cy="312.8" r="1.5" fill="#FFE9A8" filter="url(#bl1)"><animate attributeName="cy" values="312.8;187.4" dur="9s" begin="1.1s" repeatCount="indefinite"/><animate attributeName="cx" values="518.9;522.6" dur="9s" begin="4s" repeatCount="indefinite"/><animate attributeName="opacity" values="0;.9;0" dur="9s" begin="2.6s" repeatCount="indefinite"/></circle><circle cx="78.1" cy="365.1" r="2.6" fill="#FFE9A8" filter="url(#bl1)"><animate attributeName="cy" values="365.1;261.7" dur="8.7s" begin="6.6s" repeatCount="indefinite"/><animate attributeName="cx" values="78.1;49.8" dur="8.7s" begin="3.5s" repeatCount="indefinite"/><animate attributeName="opacity" values="0;.9;0" dur="8.7s" begin="2.1s" repeatCount="indefinite"/></circle><circle cx="1105.6" cy="302" r="1.6" fill="#FFE9A8" filter="url(#bl1)"><animate attributeName="cy" values="302;189.9" dur="7.6s" begin="1.3s" repeatCount="indefinite"/><animate attributeName="cx" values="1105.6;1083.2" dur="7.6s" begin="5s" repeatCount="indefinite"/><animate attributeName="opacity" values="0;.9;0" dur="7.6s" begin="1.3s" repeatCount="indefinite"/></circle><circle cx="1140.9" cy="332.2" r="2.2" fill="#FFE9A8" filter="url(#bl1)"><animate attributeName="cy" values="332.2;226.3" dur="8s" begin="3.5s" repeatCount="indefinite"/><animate attributeName="cx" values="1140.9;1148.7" dur="8s" begin="3.4s" repeatCount="indefinite"/><animate attributeName="opacity" values="0;.9;0" dur="8s" begin="2.7s" repeatCount="indefinite"/></circle><circle cx="539.3" cy="327.4" r="2.1" fill="#FFE9A8" filter="url(#bl1)"><animate attributeName="cy" values="327.4;232.1" dur="8s" begin="1.3s" repeatCount="indefinite"/><animate attributeName="cx" values="539.3;519.6" dur="8s" begin="3.8s" repeatCount="indefinite"/><animate attributeName="opacity" values="0;.9;0" dur="8s" begin="3.9s" repeatCount="indefinite"/></circle><circle cx="41.8" cy="315.2" r="1" fill="#FFE9A8" filter="url(#bl1)"><animate attributeName="cy" values="315.2;202.4" dur="9.3s" begin="7.3s" repeatCount="indefinite"/><animate attributeName="cx" values="41.8;52.9" dur="9.3s" begin="1.9s" repeatCount="indefinite"/><animate attributeName="opacity" values="0;.9;0" dur="9.3s" begin="5.6s" repeatCount="indefinite"/></circle><circle cx="436.8" cy="355.7" r="1.8" fill="#FFE9A8" filter="url(#bl1)"><animate attributeName="cy" values="355.7;232.3" dur="6s" begin="6.1s" repeatCount="indefinite"/><animate attributeName="cx" values="436.8;456.1" dur="6s" begin="6.3s" repeatCount="indefinite"/><animate attributeName="opacity" values="0;.9;0" dur="6s" begin="2.9s" repeatCount="indefinite"/></circle><circle cx="945.9" cy="397.7" r="1.8" fill="#FFE9A8" filter="url(#bl1)"><animate attributeName="cy" values="397.7;300.9" dur="8.3s" begin="2.8s" repeatCount="indefinite"/><animate attributeName="cx" values="945.9;970.4" dur="8.3s" begin="1.1s" repeatCount="indefinite"/><animate attributeName="opacity" values="0;.9;0" dur="8.3s" begin="1.9s" repeatCount="indefinite"/></circle><circle cx="467.4" cy="311.3" r="2.5" fill="#FFE9A8" filter="url(#bl1)"><animate attributeName="cy" values="311.3;190.3" dur="7s" begin="6.4s" repeatCount="indefinite"/><animate attributeName="cx" values="467.4;482.6" dur="7s" begin="6s" repeatCount="indefinite"/><animate attributeName="opacity" values="0;.9;0" dur="7s" begin="3.8s" repeatCount="indefinite"/></circle>
<g fill="#ffffff" opacity="0.95" filter="url(#bl9)"><g><animateTransform attributeName="transform" type="translate" values="0 0;-1200 0" dur="38s" repeatCount="indefinite"/><use href="#cl" transform="translate(564.2 426.7) scale(1.8 1.4)"/><use href="#cl" transform="translate(1764.2 426.7) scale(1.8 1.4)"/><use href="#cl" transform="translate(238.8 434.4) scale(1.8 1.4)"/><use href="#cl" transform="translate(1438.8 434.4) scale(1.8 1.4)"/><use href="#cl" transform="translate(726.4 431) scale(2.4 1.9)"/><use href="#cl" transform="translate(1926.4 431) scale(2.4 1.9)"/><use href="#cl" transform="translate(26.7 433.9) scale(2.2 1.8)"/><use href="#cl" transform="translate(1226.7 433.9) scale(2.2 1.8)"/><use href="#cl" transform="translate(616.3 425.1) scale(2.2 1.7)"/><use href="#cl" transform="translate(1816.3 425.1) scale(2.2 1.7)"/><use href="#cl" transform="translate(828.7 422.5) scale(2.4 1.9)"/><use href="#cl" transform="translate(2028.7 422.5) scale(2.4 1.9)"/></g></g>
</g>
<rect width="1200" height="440" fill="url(#vig)"/>
<rect x="12" y="12" width="1176" height="416" fill="none" stroke="#F5D78E" stroke-opacity=".7"/>
<g fill="none" stroke="#F5D78E" stroke-width="2.4"><path d="M12 46V12H46M1154 12H1188V46M12 394V428H46M1154 428H1188V394"/></g>
</svg>